<?xml version="1.0" standalone="no"?>
<!DOCTYPE svg PUBLIC "-//W3C//DTD SVG 20010904//EN"
 "http://www.w3.org/TR/2001/REC-SVG-20010904/DTD/svg10.dtd">
<svg version="1.0" xmlns="http://www.w3.org/2000/svg"
 width="512.000000pt" height="512.000000pt" viewBox="0 0 512.000000 512.000000"
 preserveAspectRatio="xMidYMid meet">

<g transform="translate(0.000000,512.000000) scale(0.100000,-0.100000)"
fill="#000000" stroke="none">
<path d="M915 3835 c-78 -32 -133 -73 -170 -125 -33 -47 -34 -49 -20 -291 7
-115 5 -133 -14 -192 -51 -151 -147 -252 -413 -429 -95 -64 -184 -126 -197
-139 -117 -111 -72 -386 92 -556 71 -75 139 -111 222 -118 33 -3 283 -2 555 2
450 7 498 10 523 26 61 39 12 149 -145 328 -32 36 -58 68 -58 71 0 3 41 9 91
13 322 25 564 190 640 435 32 103 42 212 29 305 -38 262 -184 485 -414 633
-54 35 -76 40 -76 18 0 -47 -93 -105 -181 -113 -65 -6 -115 13 -280 107 -47
28 -95 50 -105 50 -11 0 -46 -12 -79 -25z m300 -445 c58 -36 82 -119 51 -178
-27 -52 -62 -75 -118 -79 -89 -7 -151 52 -151 142 0 106 126 172 218 115z"/>
<path d="M4192 3530 c-254 -83 -521 -116 -868 -107 l-232 6 -42 -60 c-61 -87
-136 -253 -166 -366 -38 -147 -45 -366 -15 -522 72 -375 288 -662 612 -815
136 -65 229 -87 385 -93 197 -8 334 21 504 107 145 73 288 194 377 319 l46 63
13 162 c7 88 14 199 15 246 1 58 4 77 9 60 4 -14 8 -182 9 -374 1 -331 2 -350
21 -381 56 -91 193 -82 243 15 16 32 17 68 14 465 -3 463 -5 479 -61 600 -31
67 -104 146 -176 190 -48 29 -59 41 -64 70 -4 19 -29 80 -57 135 -91 181 -239
303 -384 315 -51 5 -78 -1 -183 -35z"/>
<path d="M2359 2116 c-159 -44 -291 -173 -345 -336 -26 -78 -24 -225 5 -304
71 -199 260 -336 463 -336 282 0 501 216 501 495 0 228 -140 413 -362 479 -65
19 -196 20 -262 2z"/>
<path d="M4179 1406 c-169 -60 -244 -240 -164 -395 106 -207 400 -206 506 1
30 60 36 152 14 219 -25 75 -103 152 -175 173 -64 19 -132 20 -181 2z"/>
</g>
</svg>
